<?xml version="1.0" encoding="UTF-8"?>
<svg width="120px" height="120px" viewBox="0 0 120 120" version="1.1" xmlns="http://www.w3.org/2000/svg" xmlns:xlink="http://www.w3.org/1999/xlink">
    <!-- Generator: Sketch 52.6 (67491) - http://www.bohemiancoding.com/sketch -->
    <title>Circle 120x120</title>
    <desc>Created with Sketch.</desc>
    <g id="Circle-120x120" stroke="none" stroke-width="1" fill="none" fill-rule="evenodd">
        <circle id="Oval" fill="#0084FF" cx="60" cy="60" r="60"></circle>
        <path d="M60.0234389,24.0234375 C39.741748,24.0234375 24.0234375,38.8799644 24.0234375,58.9446059 C24.0234375,69.440514 28.3260534,78.5094422 35.3304802,84.7751154 C35.9172005,85.3038948 36.2721301,86.0354936 36.301104,86.8250409 L36.4966774,93.2283416 C36.5618686,95.2710236 38.6697157,96.5965937 40.5385287,95.7780723 L47.6805813,92.6271268 C48.289032,92.3591153 48.9626739,92.3084104 49.6000985,92.4822557 C52.8813863,93.3876998 56.379978,93.8657743 60.0234389,93.8657743 C80.3051299,93.8657743 96.0234404,79.0092474 96.0234404,58.9446059 C96.0234404,38.8799644 80.3051299,24.0234375 60.0234389,24.0234375 Z M81.6379267,50.8897751 L71.0624736,67.6658436 C69.3819906,70.331471 65.774747,70.9978779 63.2540226,69.1073106 L54.8443643,62.798176 C54.0693139,62.2186918 53.0117686,62.2259354 52.2439618,62.8054196 L40.8862148,71.4252475 C39.3723315,72.5769724 37.3876231,70.7588406 38.4089512,69.1507719 L48.9844043,52.3747034 C50.6648873,49.709076 54.2721309,49.0426691 56.7928553,50.9332364 L65.2025136,57.242371 C65.9775639,57.8218552 67.0351092,57.8146117 67.8029161,57.2351274 L79.160663,48.6152995 C80.6745464,47.4635746 82.6592547,49.2817064 81.6379267,50.8897751 Z" id="Shape" fill="#FFFFFF"></path>
    </g>
</svg>